<svg version="1.1" width="200" height="30" viewBox="0 0 1000 212"><g transform="matrix(1,0,0,1,-0.6056348047761162,0.2339197909302584)"><svg viewBox="0 0 396 84" data-background-color="#ffffff" preserveAspectRatio="xMidYMid meet" height="212" width="1000" xmlns="http://www.w3.org/2000/svg" xmlns:xlink="http://www.w3.org/1999/xlink"><g id="tight-bounds" transform="matrix(1,0,0,1,0.24008861730862918,-0.09268520017991477)"><svg viewBox="0 0 395.52 84.18537040035986" height="84.18537040035986" width="395.52"><g><svg viewBox="0 0 395.52 84.18537040035986" height="84.18537040035986" width="395.52"><g><svg viewBox="0 0 395.52 84.18537040035986" height="84.18537040035986" width="395.52"><g id="textblocktransform"><svg viewBox="0 0 395.52 84.18537040035986" height="84.18537040035986" width="395.52" id="textblock"><g><svg viewBox="0 0 395.52 84.18537040035986" height="84.18537040035986" width="395.52"><path d="M394.594 18.056C392.735 9.318 387.435 6.888 387.435 6.888 371.165-2.112 350.86-0.172 332.619 1.121 300.414 1.174 268.339 3.096 236.208 4.127 168.767 4.284 100.749 1.698 33.643 8.077 27.339 10.034-6.54 8.461 1.121 19.175 3.129 23.631 10.456 28.577 10.232 32.667 11.236 33.383 12.631 31.741 13.226 32.772 15.309 35.55 18.711 34.24 21.501 35.883 17.614 40.269 20.403 43.922 23.062 47.749 18.377 48.745 12.371 48.274 9.675 51.577 9.396 53.971 7.89 53.517 6.235 53.412 5.026 53.342 2.59 53.604 2.999 54.356 4.394 56.925-1.594 58.41 2.162 60.927-0.422 63.653 3.948 66.013 3.353 68.966 3.278 69.56 3.687 70.067 4.338 70.207 7.22 70.958 3.018 72.427 3.464 74.017 33.029 84.888 65.104 77.372 95.394 82.371 103.259 78.875 97.346 83.612 100.489 82.878 102.943 82.021 104.728 85.569 107.499 83.559 107.927 82.983 107.276 81.619 108.8 81.882 109.6 82.021 110.307 81.986 110.418 81.182 110.586 79.977 109.117 80.728 108.726 80.099 112.947 76.918 111.906 84.486 115.866 84.171 115.68 83.245 114.528 81.916 116.889 82.091 119.232 80.763 119.306 79.662 121.389 82.65 121.463 83.297 121.835 83.752 122.43 84.066 128.938 80.815 135.409 85.22 142.233 83.752 146.417 82.144 150.433 84.625 154.672 84.014 156.16 83.524 157.666 82.65 159.098 84.119 176.632 84.433 195.319 83.122 211.943 84.171 256.364 82.214 303.836 84.975 350.674 82.388 361.719 81.392 373.192 79.977 383.958 78.841 383.958 78.841 392.679 75.73 392.679 61.748S394.538 49.514 394.817 38.382C395.096 27.249 396.398 26.795 394.538 18.056Z" opacity="1" fill="#ef86c1" data-fill-palette-color="tertiary"></path><g transform="matrix(1,0,0,1,55.76832,26.230666666666668)"><svg width="283.98335999999995" viewBox="0.8 -37 333.43 37.25" height="31.72403706702653" data-palette-color="#ffffff"><path d="M11.45 0L6.45 0 8.35-10.35 0.8-10.35 1.55-15.3 9.3-15.3 10.3-21.25 2.45-21.25 3.25-26.2 11.3-26.2 13.2-36.6 18.2-36.6 16.3-26.2 22-26.2 23.85-36.6 28.85-36.6 27-26.2 35.5-26.2 34.75-21.25 26.2-21.25 25.2-15.3 33.75-15.3 33.05-10.35 24.1-10.35 22.2 0 17.2 0 19.1-10.35 13.35-10.35 11.45 0ZM15.3-21.25L14.3-15.3 20.2-15.3 21.25-21.25 15.3-21.25ZM46.75 0L39.35 0 39.35-28.55Q39.35-31 40.1-32.65 40.85-34.3 42.1-35.25 43.35-36.2 44.85-36.6 46.35-37 47.8-37L47.8-37Q49.6-37 52.27-36.98 54.95-36.95 57.97-36.8 61-36.65 63.8-36.35L63.8-36.35 63.8-30.15 49.85-30.15Q48.3-30.15 47.52-29.33 46.75-28.5 46.75-27.15L46.75-27.15 46.75-20.85 61.4-20.45 61.4-14.6 46.75-14.2 46.75 0ZM90.9 0L77.25 0Q74.39 0 72.42-0.88 70.45-1.75 69.47-3.68 68.5-5.6 68.5-8.75L68.5-8.75 68.5-37 75.9-37 75.9-9.95Q75.9-8.75 76.32-8 76.75-7.25 77.5-6.98 78.25-6.7 79.2-6.7L79.2-6.7 90.9-6.7 90.9 0ZM100.49 0L92.89 0 104.49-37 113.84-37 125.44 0 117.74 0 115.39-7.75 102.79-7.75 100.49 0ZM109.09-30.65L104.54-14.4 113.64-14.4 109.09-30.65ZM136.89 0L129.49 0 129.49-37 136.89-37 136.89 0ZM150.69 0L143.29 0 143.29-37 158.59-37Q160.79-37 162.69-36.48 164.59-35.95 166.04-34.65 167.49-33.35 168.31-31.05 169.14-28.75 169.14-25.15L169.14-25.15Q169.14-22.6 168.64-20.8 168.14-19 167.31-17.85 166.49-16.7 165.44-16 164.39-15.3 163.29-14.85L163.29-14.85 170.19 0 162.64 0 156.69-13.7Q156.09-13.7 155.31-13.73 154.54-13.75 153.74-13.75 152.94-13.75 152.14-13.75 151.34-13.75 150.69-13.8L150.69-13.8 150.69 0ZM150.69-30.35L150.69-19.65 157.29-19.65Q158.29-19.65 159.09-19.9 159.89-20.15 160.49-20.78 161.09-21.4 161.41-22.45 161.74-23.5 161.74-25.15L161.74-25.15Q161.74-26.7 161.41-27.73 161.09-28.75 160.49-29.33 159.89-29.9 159.09-30.13 158.29-30.35 157.29-30.35L157.29-30.35 150.69-30.35ZM182.03 0L174.63 0 174.63-37 182.03-37 182.03-21.6 195.99-21.6 195.99-37 203.44-37 203.44 0 195.99 0 195.99-14.95 182.03-14.95 182.03 0ZM215.03 0L207.43 0 219.03-37 228.38-37 239.98 0 232.28 0 229.93-7.75 217.33-7.75 215.03 0ZM223.63-30.65L219.08-14.4 228.18-14.4 223.63-30.65ZM260.88 0L251.53 0 239.93-37 247.58-37 256.23-8 264.88-37 272.48-37 260.88 0ZM284.28 0.25L284.28 0.25Q283.08 0.25 281.53 0.03 279.98-0.2 278.55-1 277.13-1.8 276.2-3.43 275.28-5.05 275.28-7.9L275.28-7.9 275.28-28.55Q275.28-31 276.03-32.65 276.78-34.3 278.03-35.25 279.28-36.2 280.78-36.6 282.28-37 283.73-37L283.73-37Q287.48-37 290.35-36.9 293.23-36.8 295.53-36.68 297.83-36.55 299.73-36.35L299.73-36.35 299.73-30.15 285.93-30.15Q284.38-30.15 283.53-29.4 282.68-28.65 282.68-27.1L282.68-27.1 282.68-21.75 297.33-21.35 297.33-15.5 282.68-15.1 282.68-10Q282.68-8.7 283.1-7.98 283.53-7.25 284.25-6.98 284.98-6.7 285.78-6.7L285.78-6.7 299.73-6.7 299.73-0.5Q297.53-0.25 294.85-0.1 292.18 0.05 289.45 0.15 286.73 0.25 284.28 0.25ZM312.83 0L305.38 0 305.38-37 311.33-37 326.83-12.6 326.83-37 334.23-37 334.23 0 328.28 0 312.83-24.4 312.83 0Z" opacity="1" transform="matrix(1,0,0,1,0,0)" fill="#ffffff" class="undefined-text-0" data-fill-palette-color="quaternary" id="text-0"></path></svg></g></svg></g></svg></g></svg></g><g></g></svg></g><defs></defs></svg><rect width="395.52" height="84.18537040035986" fill="none" stroke="none" visibility="hidden"></rect></g></svg></g></svg>