<?xml version="1.0" standalone="no"?>
<!DOCTYPE svg PUBLIC "-//W3C//DTD SVG 20010904//EN"
 "http://www.w3.org/TR/2001/REC-SVG-20010904/DTD/svg10.dtd">
<svg version="1.0" xmlns="http://www.w3.org/2000/svg"
 width="256.000000pt" height="256.000000pt" viewBox="0 0 256.000000 256.000000"
 preserveAspectRatio="xMidYMid meet">

<g transform="translate(0.000000,256.000000) scale(0.100000,-0.100000)"
fill="#ced0d3" stroke="none">
<path d="M1885 2160 c-22 -5 -60 -16 -84 -24 -50 -18 -166 -98 -174 -121 -6
-13 -84 -15 -679 -15 -710 -1 -720 -1 -770 -47 -55 -50 -53 -20 -53 -768 l0
-690 23 -37 c13 -20 40 -47 60 -60 l37 -23 945 0 c905 0 947 1 983 19 23 11
47 35 62 61 l25 42 0 420 0 419 31 30 c46 43 95 123 119 195 18 53 21 81 18
164 -3 87 -8 109 -35 168 -91 192 -310 307 -508 267z m180 -76 c168 -43 283
-180 293 -348 6 -96 -9 -164 -49 -235 l-31 -54 -278 278 c-154 154 -277 282
-274 287 11 17 92 58 144 72 72 19 123 19 195 0z m-115 -409 c311 -312 293
-279 180 -334 -49 -23 -67 -26 -160 -26 -93 0 -112 3 -162 27 -218 102 -301
376 -172 571 13 20 28 37 32 37 4 0 131 -124 282 -275z m-390 251 c0 -2 -9
-23 -19 -47 -107 -243 32 -540 290 -620 88 -27 205 -25 292 5 l67 24 0 -264 0
-264 -113 118 c-62 64 -137 143 -167 175 -62 67 -95 87 -142 87 -46 -1 -57 -9
-223 -155 -80 -71 -148 -130 -150 -130 -3 0 -113 155 -245 345 -133 190 -254
357 -270 372 -55 51 -131 49 -185 -5 -17 -18 -134 -196 -260 -397 l-230 -365
-3 528 c-1 366 1 534 9 548 25 48 33 48 712 49 350 0 637 -2 637 -4z m-731
-403 c12 -10 136 -182 276 -383 140 -200 262 -368 270 -373 19 -10 24 -7 218
166 109 96 162 137 180 137 18 0 69 -48 221 -207 l196 -207 0 -76 c0 -89 -13
-114 -68 -130 -51 -14 -1803 -14 -1854 0 -55 16 -68 41 -68 135 l0 81 261 415
c143 228 271 424 285 437 30 27 55 28 83 5z"/>
</g>
</svg>
