<svg xmlns="http://www.w3.org/2000/svg" version="1.1" xmlns:xlink="http://www.w3.org/1999/xlink" xmlns:svgjs="http://svgjs.dev/svgjs" width="1000" height="999" viewBox="0 0 1000 999"><g transform="matrix(1,0,0,1,-0.215743440233382,-0.21552769679306039)"><svg viewBox="0 0 343 343" data-background-color="#ffffff" preserveAspectRatio="xMidYMid meet" height="999" width="1000" xmlns="http://www.w3.org/2000/svg" xmlns:xlink="http://www.w3.org/1999/xlink"><g id="tight-bounds" transform="matrix(1,0,0,1,0.0740000000000407,0.07400000000001228)"><svg viewBox="0 0 342.85155851775386 342.85155851775386" height="342.85155851775386" width="342.85155851775386"><g><svg></svg></g><g><svg viewBox="0 0 342.85155851775386 342.85155851775386" height="342.85155851775386" width="342.85155851775386"><g><path d="M0 171.426c0-94.676 76.75-171.426 171.426-171.426 94.676 0 171.426 76.75 171.426 171.426 0 94.676-76.75 171.426-171.426 171.426-94.676 0-171.426-76.75-171.426-171.426zM171.426 331.562c88.441 0 160.136-71.695 160.136-160.136 0-88.441-71.695-160.136-160.136-160.136-88.441 0-160.136 71.695-160.136 160.136 0 88.441 71.695 160.136 160.136 160.136z" data-fill-palette-color="tertiary" fill="#e83d95" stroke="transparent"></path><ellipse rx="164.56874808852186" ry="164.56874808852186" cx="171.42577925887693" cy="171.42577925887693" fill="#e83d95" stroke="transparent" stroke-width="0" fill-opacity="1" data-fill-palette-color="tertiary"></ellipse></g><g transform="matrix(1,0,0,1,64.84655864529837,108.8316338191562)"><svg viewBox="0 0 213.1584412271571 125.18829087944147" height="125.18829087944147" width="213.1584412271571"><g><svg viewBox="0 0 213.1584412271571 125.18829087944147" height="125.18829087944147" width="213.1584412271571"><g><svg viewBox="0 0 213.1584412271571 125.18829087944147" height="125.18829087944147" width="213.1584412271571"><g><svg viewBox="0 0 213.1584412271571 125.18829087944147" height="125.18829087944147" width="213.1584412271571"><g id="textblocktransform"><svg viewBox="0 0 213.1584412271571 125.18829087944147" height="125.18829087944147" width="213.1584412271571" id="textblock"><g><svg viewBox="0 0 213.1584412271571 125.18829087944147" height="125.18829087944147" width="213.1584412271571"><g transform="matrix(1,0,0,1,0,0)"><svg width="213.1584412271571" viewBox="0.800000011920929 -37 63 37" height="125.18829087944147" data-palette-color="#ffffff"><path d="M11.45 0L6.45 0 8.35-10.35 0.8-10.35 1.55-15.3 9.3-15.3 10.3-21.25 2.45-21.25 3.25-26.2 11.3-26.2 13.2-36.6 18.2-36.6 16.3-26.2 22-26.2 23.85-36.6 28.85-36.6 27-26.2 35.5-26.2 34.75-21.25 26.2-21.25 25.2-15.3 33.75-15.3 33.05-10.35 24.1-10.35 22.2 0 17.2 0 19.1-10.35 13.35-10.35 11.45 0ZM15.3-21.25L14.3-15.3 20.2-15.3 21.25-21.25 15.3-21.25ZM46.75 0L39.35 0 39.35-28.55Q39.35-31 40.1-32.65 40.85-34.3 42.1-35.25 43.35-36.2 44.85-36.6 46.35-37 47.8-37L47.8-37Q49.6-37 52.27-36.98 54.95-36.95 57.97-36.8 61-36.65 63.8-36.35L63.8-36.35 63.8-30.15 49.85-30.15Q48.3-30.15 47.52-29.33 46.75-28.5 46.75-27.15L46.75-27.15 46.75-20.85 61.4-20.45 61.4-14.6 46.75-14.2 46.75 0Z" opacity="1" transform="matrix(1,0,0,1,0,0)" fill="#ffffff" class="undefined-text-0" data-fill-palette-color="quaternary" id="text-0"></path></svg></g></svg></g></svg></g></svg></g><g></g></svg></g></svg></g></svg></g></svg></g><defs></defs></svg><rect width="342.85155851775386" height="342.85155851775386" fill="none" stroke="none" visibility="hidden"></rect></g></svg></g></svg>